<?xml version="1.0" encoding="UTF-8"?>
<svg width="30px" height="30px" viewBox="0 0 30 30" version="1.1" xmlns="http://www.w3.org/2000/svg" xmlns:xlink="http://www.w3.org/1999/xlink">
    <!-- Generator: Sketch 54.1 (76490) - https://sketchapp.com -->
    <title>instagram</title>
    <desc>Created with Sketch.</desc>
    <g id="Page-1" stroke="none" stroke-width="1" fill="none" fill-rule="evenodd">
        <g id="A3" transform="translate(-315.000000, -297.000000)" fill="#303030" fill-rule="nonzero">
            <g id="instagram" transform="translate(315.000000, 297.000000)">
                <path d="M20.625,0 L9.375,0 C4.198125,0 0,4.198125 0,9.375 L0,20.625 C0,25.801875 4.198125,30 9.375,30 L20.625,30 C25.801875,30 30,25.801875 30,20.625 L30,9.375 C30,4.198125 25.801875,0 20.625,0 Z M27.1875,20.625 C27.1875,24.24375 24.24375,27.1875 20.625,27.1875 L9.375,27.1875 C5.75625,27.1875 2.8125,24.24375 2.8125,20.625 L2.8125,9.375 C2.8125,5.75625 5.75625,2.8125 9.375,2.8125 L20.625,2.8125 C24.24375,2.8125 27.1875,5.75625 27.1875,9.375 L27.1875,20.625 Z" id="Shape"></path>
                <path d="M15,7.5 C10.858125,7.5 7.5,10.858125 7.5,15 C7.5,19.141875 10.858125,22.5 15,22.5 C19.141875,22.5 22.5,19.141875 22.5,15 C22.5,10.858125 19.141875,7.5 15,7.5 Z M15,19.6875 C12.41625,19.6875 10.3125,17.58375 10.3125,15 C10.3125,12.414375 12.41625,10.3125 15,10.3125 C17.58375,10.3125 19.6875,12.414375 19.6875,15 C19.6875,17.58375 17.58375,19.6875 15,19.6875 Z" id="Shape"></path>
                <circle id="Oval" cx="23.0625" cy="6.9375" r="1"></circle>
            </g>
        </g>
    </g>
</svg>